<?xml version="1.0" encoding="utf-8"?>
<!-- Generator: Adobe Illustrator 19.0.0, SVG Export Plug-In . SVG Version: 6.00 Build 0)  -->
<svg version="1.1" id="Layer_1" xmlns="http://www.w3.org/2000/svg" xmlns:xlink="http://www.w3.org/1999/xlink" x="0px" y="0px"
	 viewBox="-259 259.9 48 48" style="enable-background:new -259 259.9 48 48;" xml:space="preserve">
<style type="text/css">
	.st0{fill:#B0B2B4;}
</style>
<path class="st0" d="M-233,278.9h10v-4h-10V278.9z M-233,292.9h10v-4h-10V292.9z M-221,301.9h-28c-2.2,0-4-1.8-4-4v-28
	c0-2.2,1.8-4,4-4h28c2.2,0,4,1.8,4,4v28C-217,300.1-218.8,301.9-221,301.9z M-247,281.9h10v-10h-10V281.9z M-245,273.9h6v6h-6V273.9
	z M-247,295.9h10v-10h-10V295.9z M-245,287.9h6v6h-6V287.9z"/>
</svg>
