<?xml version="1.0" encoding="utf-8"?>
<!-- Generator: Adobe Illustrator 19.0.0, SVG Export Plug-In . SVG Version: 6.00 Build 0)  -->
<svg version="1.1" id="Layer_1" xmlns="http://www.w3.org/2000/svg" xmlns:xlink="http://www.w3.org/1999/xlink" x="0px" y="0px"
	 viewBox="-267 402.9 36 36" style="enable-background:new -267 402.9 36 36;" xml:space="preserve">
<style type="text/css">
	.st0{fill:#B0B2B4;}
</style>
<path class="st0" d="M-247,415.9h10v-4h-10V415.9z M-247,429.9h10v-4h-10V429.9z M-235,438.9h-28c-2.2,0-4-1.8-4-4v-28
	c0-2.2,1.8-4,4-4h28c2.2,0,4,1.8,4,4v28C-231,437.1-232.8,438.9-235,438.9z M-261,418.9h10v-10h-10V418.9z M-259,410.9h6v6h-6V410.9
	z M-261,432.9h10v-10h-10V432.9z M-259,424.9h6v6h-6V424.9z"/>
</svg>
